<mxfile host="app.diagrams.net" modified="2024-02-18T10:50:34.150Z" agent="Mozilla/5.0 (X11; Linux x86_64) AppleWebKit/537.36 (KHTML, like Gecko) Chrome/120.0.0.0 Safari/537.36" etag="-r7DjpupL6UMvBmLD--Q" version="23.1.5" type="device">
  <diagram name="Страница — 1" id="2OqyJTLrMCoBzS_Gg6gE">
    <mxGraphModel dx="1135" dy="633" grid="1" gridSize="10" guides="1" tooltips="1" connect="1" arrows="1" fold="1" page="1" pageScale="1" pageWidth="3300" pageHeight="4681" math="0" shadow="0">
      <root>
        <mxCell id="0" />
        <mxCell id="1" parent="0" />
        <mxCell id="ibT2I1QGQoGM4Rnpguxg-1" value="" style="shape=cube;whiteSpace=wrap;html=1;boundedLbl=1;backgroundOutline=1;darkOpacity=0.05;darkOpacity2=0.1;size=10;" vertex="1" parent="1">
          <mxGeometry x="830" y="240" width="250" height="240" as="geometry" />
        </mxCell>
        <mxCell id="ibT2I1QGQoGM4Rnpguxg-2" value="&lt;b&gt;&lt;font style=&quot;font-size: 14px;&quot;&gt;Сервер-посредник&lt;/font&gt;&lt;/b&gt;" style="text;html=1;align=center;verticalAlign=middle;whiteSpace=wrap;rounded=0;" vertex="1" parent="1">
          <mxGeometry x="865" y="200" width="150" height="30" as="geometry" />
        </mxCell>
        <mxCell id="ibT2I1QGQoGM4Rnpguxg-3" value="Сервер" style="rounded=0;whiteSpace=wrap;html=1;" vertex="1" parent="1">
          <mxGeometry x="880" y="270" width="180" height="25" as="geometry" />
        </mxCell>
        <mxCell id="ibT2I1QGQoGM4Rnpguxg-4" value="" style="shape=cube;whiteSpace=wrap;html=1;boundedLbl=1;backgroundOutline=1;darkOpacity=0.05;darkOpacity2=0.1;size=10;" vertex="1" parent="1">
          <mxGeometry x="1190" y="200" width="150" height="70" as="geometry" />
        </mxCell>
        <mxCell id="ibT2I1QGQoGM4Rnpguxg-5" value="&lt;b&gt;&lt;font style=&quot;font-size: 14px;&quot;&gt;Источник 1&lt;/font&gt;&lt;/b&gt;" style="text;html=1;align=center;verticalAlign=middle;whiteSpace=wrap;rounded=0;" vertex="1" parent="1">
          <mxGeometry x="1190" y="160" width="150" height="30" as="geometry" />
        </mxCell>
        <mxCell id="ibT2I1QGQoGM4Rnpguxg-6" value="" style="shape=cube;whiteSpace=wrap;html=1;boundedLbl=1;backgroundOutline=1;darkOpacity=0.05;darkOpacity2=0.1;size=10;" vertex="1" parent="1">
          <mxGeometry x="1200" y="370" width="150" height="70" as="geometry" />
        </mxCell>
        <mxCell id="ibT2I1QGQoGM4Rnpguxg-7" value="&lt;b&gt;&lt;font style=&quot;font-size: 14px;&quot;&gt;Источник 2&lt;/font&gt;&lt;/b&gt;" style="text;html=1;align=center;verticalAlign=middle;whiteSpace=wrap;rounded=0;" vertex="1" parent="1">
          <mxGeometry x="1200" y="330" width="150" height="30" as="geometry" />
        </mxCell>
        <mxCell id="ibT2I1QGQoGM4Rnpguxg-8" value="Сервер" style="rounded=0;whiteSpace=wrap;html=1;" vertex="1" parent="1">
          <mxGeometry x="1210" y="222.5" width="120" height="25" as="geometry" />
        </mxCell>
        <mxCell id="ibT2I1QGQoGM4Rnpguxg-9" value="Сервер" style="rounded=0;whiteSpace=wrap;html=1;" vertex="1" parent="1">
          <mxGeometry x="1220" y="392.5" width="120" height="25" as="geometry" />
        </mxCell>
        <mxCell id="ibT2I1QGQoGM4Rnpguxg-10" value="БД" style="shape=cylinder3;whiteSpace=wrap;html=1;boundedLbl=1;backgroundOutline=1;size=11;" vertex="1" parent="1">
          <mxGeometry x="880" y="540" width="170" height="60" as="geometry" />
        </mxCell>
        <mxCell id="ibT2I1QGQoGM4Rnpguxg-25" style="rounded=0;orthogonalLoop=1;jettySize=auto;html=1;exitX=0;exitY=0;exitDx=150;exitDy=40;exitPerimeter=0;entryX=-0.01;entryY=0.176;entryDx=0;entryDy=0;entryPerimeter=0;fillColor=#008a00;strokeColor=#005700;" edge="1" parent="1" source="ibT2I1QGQoGM4Rnpguxg-11" target="ibT2I1QGQoGM4Rnpguxg-3">
          <mxGeometry relative="1" as="geometry" />
        </mxCell>
        <mxCell id="ibT2I1QGQoGM4Rnpguxg-27" value="HTTP" style="edgeLabel;html=1;align=center;verticalAlign=middle;resizable=0;points=[];" vertex="1" connectable="0" parent="ibT2I1QGQoGM4Rnpguxg-25">
          <mxGeometry x="0.0457" y="-1" relative="1" as="geometry">
            <mxPoint as="offset" />
          </mxGeometry>
        </mxCell>
        <mxCell id="ibT2I1QGQoGM4Rnpguxg-11" value="" style="shape=cube;whiteSpace=wrap;html=1;boundedLbl=1;backgroundOutline=1;darkOpacity=0.05;darkOpacity2=0.1;size=10;" vertex="1" parent="1">
          <mxGeometry x="520" y="200" width="150" height="70" as="geometry" />
        </mxCell>
        <mxCell id="ibT2I1QGQoGM4Rnpguxg-12" value="&lt;b&gt;&lt;font style=&quot;font-size: 14px;&quot;&gt;Источник 1&lt;/font&gt;&lt;/b&gt;" style="text;html=1;align=center;verticalAlign=middle;whiteSpace=wrap;rounded=0;" vertex="1" parent="1">
          <mxGeometry x="520" y="160" width="150" height="30" as="geometry" />
        </mxCell>
        <mxCell id="ibT2I1QGQoGM4Rnpguxg-15" value="Клиентское приложение" style="rounded=0;whiteSpace=wrap;html=1;" vertex="1" parent="1">
          <mxGeometry x="540" y="222.5" width="120" height="37.5" as="geometry" />
        </mxCell>
        <mxCell id="ibT2I1QGQoGM4Rnpguxg-24" style="rounded=0;orthogonalLoop=1;jettySize=auto;html=1;exitX=0;exitY=0;exitDx=150;exitDy=40;exitPerimeter=0;entryX=0;entryY=0.5;entryDx=0;entryDy=0;fillColor=#008a00;strokeColor=#005700;" edge="1" parent="1" source="ibT2I1QGQoGM4Rnpguxg-17" target="ibT2I1QGQoGM4Rnpguxg-3">
          <mxGeometry relative="1" as="geometry" />
        </mxCell>
        <mxCell id="ibT2I1QGQoGM4Rnpguxg-28" value="HTTP" style="edgeLabel;html=1;align=center;verticalAlign=middle;resizable=0;points=[];" vertex="1" connectable="0" parent="ibT2I1QGQoGM4Rnpguxg-24">
          <mxGeometry x="-0.024" y="-2" relative="1" as="geometry">
            <mxPoint as="offset" />
          </mxGeometry>
        </mxCell>
        <mxCell id="ibT2I1QGQoGM4Rnpguxg-17" value="" style="shape=cube;whiteSpace=wrap;html=1;boundedLbl=1;backgroundOutline=1;darkOpacity=0.05;darkOpacity2=0.1;size=10;" vertex="1" parent="1">
          <mxGeometry x="525" y="335" width="150" height="70" as="geometry" />
        </mxCell>
        <mxCell id="ibT2I1QGQoGM4Rnpguxg-18" value="&lt;b&gt;&lt;font style=&quot;font-size: 14px;&quot;&gt;Источник 2&lt;br&gt;&lt;/font&gt;&lt;/b&gt;" style="text;html=1;align=center;verticalAlign=middle;whiteSpace=wrap;rounded=0;" vertex="1" parent="1">
          <mxGeometry x="525" y="295" width="150" height="30" as="geometry" />
        </mxCell>
        <mxCell id="ibT2I1QGQoGM4Rnpguxg-19" value="Клиентское приложение" style="rounded=0;whiteSpace=wrap;html=1;" vertex="1" parent="1">
          <mxGeometry x="545" y="357.5" width="120" height="37.5" as="geometry" />
        </mxCell>
        <mxCell id="ibT2I1QGQoGM4Rnpguxg-23" style="rounded=0;orthogonalLoop=1;jettySize=auto;html=1;exitX=0;exitY=0;exitDx=150;exitDy=40;exitPerimeter=0;entryX=-0.018;entryY=0.892;entryDx=0;entryDy=0;entryPerimeter=0;fillColor=#008a00;strokeColor=#005700;" edge="1" parent="1" source="ibT2I1QGQoGM4Rnpguxg-20" target="ibT2I1QGQoGM4Rnpguxg-3">
          <mxGeometry relative="1" as="geometry" />
        </mxCell>
        <mxCell id="ibT2I1QGQoGM4Rnpguxg-29" value="HTTP" style="edgeLabel;html=1;align=center;verticalAlign=middle;resizable=0;points=[];" vertex="1" connectable="0" parent="ibT2I1QGQoGM4Rnpguxg-23">
          <mxGeometry x="-0.0163" y="-3" relative="1" as="geometry">
            <mxPoint as="offset" />
          </mxGeometry>
        </mxCell>
        <mxCell id="ibT2I1QGQoGM4Rnpguxg-20" value="" style="shape=cube;whiteSpace=wrap;html=1;boundedLbl=1;backgroundOutline=1;darkOpacity=0.05;darkOpacity2=0.1;size=10;" vertex="1" parent="1">
          <mxGeometry x="525" y="470" width="150" height="70" as="geometry" />
        </mxCell>
        <mxCell id="ibT2I1QGQoGM4Rnpguxg-21" value="&lt;b&gt;&lt;font style=&quot;font-size: 14px;&quot;&gt;Источник 3&lt;br&gt;&lt;/font&gt;&lt;/b&gt;" style="text;html=1;align=center;verticalAlign=middle;whiteSpace=wrap;rounded=0;" vertex="1" parent="1">
          <mxGeometry x="525" y="430" width="150" height="30" as="geometry" />
        </mxCell>
        <mxCell id="ibT2I1QGQoGM4Rnpguxg-22" value="Клиентский сервис" style="rounded=0;whiteSpace=wrap;html=1;" vertex="1" parent="1">
          <mxGeometry x="545" y="492.5" width="120" height="37.5" as="geometry" />
        </mxCell>
        <mxCell id="ibT2I1QGQoGM4Rnpguxg-30" value="" style="endArrow=classic;html=1;rounded=0;entryX=0.069;entryY=0.075;entryDx=0;entryDy=0;entryPerimeter=0;exitX=0.07;exitY=1.013;exitDx=0;exitDy=0;exitPerimeter=0;fillColor=#008a00;strokeColor=#005700;" edge="1" parent="1" source="ibT2I1QGQoGM4Rnpguxg-3" target="ibT2I1QGQoGM4Rnpguxg-10">
          <mxGeometry width="50" height="50" relative="1" as="geometry">
            <mxPoint x="950" y="430" as="sourcePoint" />
            <mxPoint x="1000" y="380" as="targetPoint" />
          </mxGeometry>
        </mxCell>
        <mxCell id="ibT2I1QGQoGM4Rnpguxg-31" value="" style="endArrow=none;html=1;rounded=0;exitX=0.118;exitY=0.992;exitDx=0;exitDy=0;exitPerimeter=0;entryX=0.145;entryY=0;entryDx=0;entryDy=3.19;entryPerimeter=0;startArrow=classic;startFill=1;endFill=0;fillColor=#008a00;strokeColor=#005700;" edge="1" parent="1" target="ibT2I1QGQoGM4Rnpguxg-10">
          <mxGeometry width="50" height="50" relative="1" as="geometry">
            <mxPoint x="904" y="295" as="sourcePoint" />
            <mxPoint x="905" y="503" as="targetPoint" />
          </mxGeometry>
        </mxCell>
        <mxCell id="ibT2I1QGQoGM4Rnpguxg-35" style="edgeStyle=orthogonalEdgeStyle;rounded=0;orthogonalLoop=1;jettySize=auto;html=1;exitX=0.5;exitY=1;exitDx=0;exitDy=0;entryX=0.5;entryY=0;entryDx=0;entryDy=0;fillColor=#0050ef;strokeColor=#001DBC;" edge="1" parent="1" source="ibT2I1QGQoGM4Rnpguxg-32" target="ibT2I1QGQoGM4Rnpguxg-33">
          <mxGeometry relative="1" as="geometry" />
        </mxCell>
        <mxCell id="ibT2I1QGQoGM4Rnpguxg-37" value="&lt;font style=&quot;font-size: 9px;&quot;&gt;Добавляет задачу&lt;/font&gt;" style="edgeLabel;html=1;align=center;verticalAlign=middle;resizable=0;points=[];spacing=0;" vertex="1" connectable="0" parent="ibT2I1QGQoGM4Rnpguxg-35">
          <mxGeometry x="-0.3047" relative="1" as="geometry">
            <mxPoint as="offset" />
          </mxGeometry>
        </mxCell>
        <mxCell id="ibT2I1QGQoGM4Rnpguxg-32" value="Celery beat" style="rounded=0;whiteSpace=wrap;html=1;" vertex="1" parent="1">
          <mxGeometry x="940" y="310" width="120" height="25" as="geometry" />
        </mxCell>
        <mxCell id="ibT2I1QGQoGM4Rnpguxg-36" style="edgeStyle=orthogonalEdgeStyle;rounded=0;orthogonalLoop=1;jettySize=auto;html=1;exitX=0.5;exitY=1;exitDx=0;exitDy=0;entryX=0.5;entryY=0;entryDx=0;entryDy=0;fillColor=#0050ef;strokeColor=#001DBC;" edge="1" parent="1" source="ibT2I1QGQoGM4Rnpguxg-33" target="ibT2I1QGQoGM4Rnpguxg-34">
          <mxGeometry relative="1" as="geometry" />
        </mxCell>
        <mxCell id="ibT2I1QGQoGM4Rnpguxg-38" value="&lt;font style=&quot;font-size: 9px;&quot;&gt;Получает задачу из очереди&lt;/font&gt;" style="edgeLabel;html=1;align=center;verticalAlign=middle;resizable=0;points=[];spacing=0;" vertex="1" connectable="0" parent="ibT2I1QGQoGM4Rnpguxg-36">
          <mxGeometry x="-0.4588" y="-1" relative="1" as="geometry">
            <mxPoint x="1" as="offset" />
          </mxGeometry>
        </mxCell>
        <mxCell id="ibT2I1QGQoGM4Rnpguxg-33" value="Брокер сообщений" style="rounded=0;whiteSpace=wrap;html=1;" vertex="1" parent="1">
          <mxGeometry x="940" y="370" width="120" height="25" as="geometry" />
        </mxCell>
        <mxCell id="ibT2I1QGQoGM4Rnpguxg-39" style="rounded=0;orthogonalLoop=1;jettySize=auto;html=1;exitX=1;exitY=0.5;exitDx=0;exitDy=0;entryX=0;entryY=0.5;entryDx=0;entryDy=0;fillColor=#0050ef;strokeColor=#001DBC;" edge="1" parent="1" source="ibT2I1QGQoGM4Rnpguxg-34" target="ibT2I1QGQoGM4Rnpguxg-8">
          <mxGeometry relative="1" as="geometry" />
        </mxCell>
        <mxCell id="ibT2I1QGQoGM4Rnpguxg-41" value="HTTP" style="edgeLabel;html=1;align=center;verticalAlign=middle;resizable=0;points=[];" vertex="1" connectable="0" parent="ibT2I1QGQoGM4Rnpguxg-39">
          <mxGeometry x="-0.0116" relative="1" as="geometry">
            <mxPoint as="offset" />
          </mxGeometry>
        </mxCell>
        <mxCell id="ibT2I1QGQoGM4Rnpguxg-40" style="rounded=0;orthogonalLoop=1;jettySize=auto;html=1;exitX=1;exitY=0.5;exitDx=0;exitDy=0;entryX=0;entryY=0.5;entryDx=0;entryDy=0;fillColor=#0050ef;strokeColor=#001DBC;" edge="1" parent="1" source="ibT2I1QGQoGM4Rnpguxg-34" target="ibT2I1QGQoGM4Rnpguxg-9">
          <mxGeometry relative="1" as="geometry" />
        </mxCell>
        <mxCell id="ibT2I1QGQoGM4Rnpguxg-42" value="HTTP" style="edgeLabel;html=1;align=center;verticalAlign=middle;resizable=0;points=[];" vertex="1" connectable="0" parent="ibT2I1QGQoGM4Rnpguxg-40">
          <mxGeometry x="-0.1087" y="-2" relative="1" as="geometry">
            <mxPoint as="offset" />
          </mxGeometry>
        </mxCell>
        <mxCell id="ibT2I1QGQoGM4Rnpguxg-34" value="Celery" style="rounded=0;whiteSpace=wrap;html=1;" vertex="1" parent="1">
          <mxGeometry x="940" y="432.5" width="120" height="25" as="geometry" />
        </mxCell>
        <mxCell id="ibT2I1QGQoGM4Rnpguxg-43" style="edgeStyle=orthogonalEdgeStyle;rounded=0;orthogonalLoop=1;jettySize=auto;html=1;exitX=0.5;exitY=1;exitDx=0;exitDy=0;entryX=0.709;entryY=0.007;entryDx=0;entryDy=0;entryPerimeter=0;fillColor=#0050ef;strokeColor=#001DBC;" edge="1" parent="1" source="ibT2I1QGQoGM4Rnpguxg-34" target="ibT2I1QGQoGM4Rnpguxg-10">
          <mxGeometry relative="1" as="geometry">
            <mxPoint x="998" y="542" as="targetPoint" />
          </mxGeometry>
        </mxCell>
        <mxCell id="ibT2I1QGQoGM4Rnpguxg-45" value="" style="rounded=0;whiteSpace=wrap;html=1;fillColor=#fff2cc;strokeColor=#d6b656;opacity=50;" vertex="1" parent="1">
          <mxGeometry x="1140" y="570" width="280" height="180" as="geometry" />
        </mxCell>
        <mxCell id="ibT2I1QGQoGM4Rnpguxg-46" value="&lt;b&gt;Легенда&lt;/b&gt;" style="text;html=1;align=center;verticalAlign=middle;whiteSpace=wrap;rounded=0;" vertex="1" parent="1">
          <mxGeometry x="1140" y="540" width="60" height="30" as="geometry" />
        </mxCell>
        <mxCell id="ibT2I1QGQoGM4Rnpguxg-47" value="" style="shape=cube;whiteSpace=wrap;html=1;boundedLbl=1;backgroundOutline=1;darkOpacity=0.05;darkOpacity2=0.1;size=10;" vertex="1" parent="1">
          <mxGeometry x="1150" y="580" width="60" height="40" as="geometry" />
        </mxCell>
        <mxCell id="ibT2I1QGQoGM4Rnpguxg-48" value="- физическая машина" style="text;html=1;align=center;verticalAlign=middle;whiteSpace=wrap;rounded=0;" vertex="1" parent="1">
          <mxGeometry x="1210" y="585" width="130" height="30" as="geometry" />
        </mxCell>
        <mxCell id="ibT2I1QGQoGM4Rnpguxg-49" value="" style="rounded=0;whiteSpace=wrap;html=1;" vertex="1" parent="1">
          <mxGeometry x="1150" y="630" width="60" height="25" as="geometry" />
        </mxCell>
        <mxCell id="ibT2I1QGQoGM4Rnpguxg-50" value="- процесс" style="text;html=1;align=center;verticalAlign=middle;whiteSpace=wrap;rounded=0;" vertex="1" parent="1">
          <mxGeometry x="1210" y="625" width="65" height="30" as="geometry" />
        </mxCell>
        <mxCell id="ibT2I1QGQoGM4Rnpguxg-51" value="" style="endArrow=classic;html=1;rounded=0;" edge="1" parent="1">
          <mxGeometry width="50" height="50" relative="1" as="geometry">
            <mxPoint x="1155" y="725" as="sourcePoint" />
            <mxPoint x="1205" y="725" as="targetPoint" />
          </mxGeometry>
        </mxCell>
        <mxCell id="ibT2I1QGQoGM4Rnpguxg-52" value="- запрос/ответ" style="text;html=1;align=center;verticalAlign=middle;whiteSpace=wrap;rounded=0;" vertex="1" parent="1">
          <mxGeometry x="1205" y="710" width="90" height="30" as="geometry" />
        </mxCell>
        <mxCell id="ibT2I1QGQoGM4Rnpguxg-53" value="" style="shape=cylinder3;whiteSpace=wrap;html=1;boundedLbl=1;backgroundOutline=1;size=6.399999999999977;" vertex="1" parent="1">
          <mxGeometry x="1155" y="670" width="50" height="30" as="geometry" />
        </mxCell>
        <mxCell id="ibT2I1QGQoGM4Rnpguxg-54" value="- база данных" style="text;html=1;align=center;verticalAlign=middle;whiteSpace=wrap;rounded=0;" vertex="1" parent="1">
          <mxGeometry x="1210" y="670" width="80" height="30" as="geometry" />
        </mxCell>
        <mxCell id="ibT2I1QGQoGM4Rnpguxg-58" value="&lt;div style=&quot;text-align: justify;&quot;&gt;&lt;b style=&quot;background-color: initial;&quot;&gt;Выбранные технологии:&lt;/b&gt;&lt;/div&gt;&lt;div style=&quot;text-align: justify;&quot;&gt;&lt;span style=&quot;background-color: initial;&quot;&gt;Сервер: Python + Django&lt;/span&gt;&lt;/div&gt;&lt;div style=&quot;text-align: justify;&quot;&gt;&lt;span style=&quot;background-color: initial;&quot;&gt;БД: PostgreSQL&lt;/span&gt;&lt;/div&gt;&lt;div style=&quot;text-align: justify;&quot;&gt;&lt;span style=&quot;background-color: initial;&quot;&gt;Брокер сообщений: Redis&lt;br&gt;&lt;br&gt;&lt;/span&gt;&lt;/div&gt;&lt;div style=&quot;text-align: justify;&quot;&gt;&lt;font color=&quot;#3333ff&quot;&gt;&lt;b&gt;Синим&lt;/b&gt;&lt;/font&gt; цветом показан процесс получения данных из источника, &lt;font color=&quot;#005700&quot;&gt;&lt;b&gt;зеленым&lt;/b&gt;&lt;/font&gt; - процесс обработки клиентского запроса&lt;/div&gt;" style="text;html=1;align=left;verticalAlign=middle;whiteSpace=wrap;rounded=0;" vertex="1" parent="1">
          <mxGeometry x="540" y="628" width="280" height="30" as="geometry" />
        </mxCell>
      </root>
    </mxGraphModel>
  </diagram>
</mxfile>
